Coordinates
version=1
nRows=8
nColumns=40
inDegrees=yes

Units are S.I. units (second, meters, Newtons, ...)
If the header above contains a line with 'inDegrees', this indicates whether rotational values are in degrees (yes) or radians (no).

endheader
time	pelvis_tilt	pelvis_list	pelvis_rotation	pelvis_tx	pelvis_ty	pelvis_tz	hip_flexion_r	hip_adduction_r	hip_rotation_r	knee_angle_r	knee_angle_r_beta	ankle_angle_r	subtalar_angle_r	mtp_angle_r	hip_flexion_l	hip_adduction_l	hip_rotation_l	knee_angle_l	knee_angle_l_beta	ankle_angle_l	subtalar_angle_l	mtp_angle_l	lumbar_extension	lumbar_bending	lumbar_rotation	arm_flex_r	arm_add_r	arm_rot_r	elbow_flex_r	pro_sup_r	wrist_flex_r	wrist_dev_r	arm_flex_l	arm_add_l	arm_rot_l	elbow_flex_l	pro_sup_l	wrist_flex_l	wrist_dev_l
      0.62000000	     -8.28161675	     -5.81722196	     -5.66597255	     -0.43581994	      0.92899951	      0.31079293	     -2.78215469	      9.76953764	      5.04336140	      9.37859690	      0.16368740	     13.98824778	      0.00000000	      0.00000000	     29.78940147	     -7.90340637	     -2.15882686	      6.94715828	      0.12125079	      1.58355908	      0.00000000	      0.00000000	     -3.85777500	      1.96798123	     12.06963045	     -3.50924868	     -7.17391798	     -6.50408709	     54.18267203	     89.11906483	      7.44583094	     17.75136281	    -14.50202781	     -1.54423440	     -4.01674154	     28.49387379	     89.41927718	    -20.47439093	      1.94472920
      0.63000000	     -8.16044759	     -5.73212051	     -5.64742367	     -0.42607402	      0.92800325	      0.31031700	     -3.37400969	      9.56587562	      5.04882087	      9.70867884	      0.16944841	     14.13004572	      0.00000000	      0.00000000	     29.93570008	     -7.72974054	     -2.19680642	      8.16255932	      0.14246354	      1.45625191	      0.00000000	      0.00000000	     -3.91391467	      1.84241388	     12.00722131	     -3.61142353	     -6.96901274	     -6.53723537	     54.01805089	     89.11741935	      7.42993231	     17.70531177	    -14.39167268	     -1.63891417	     -3.95558072	     28.47953857	     89.43276898	    -20.42337503	      1.95217069
      0.64000000	     -8.01229293	     -5.59679371	     -5.58905619	     -0.41615963	      0.92709762	      0.30980204	     -3.97150694	      9.30817268	      4.99092845	     10.08576513	      0.17602981	     14.24285125	      0.00000000	      0.00000000	     30.06729934	     -7.50857669	     -2.31774449	      9.60050166	      0.16756036	      1.31184920	      0.00000000	      0.00000000	     -4.00278877	      1.65035382	     11.87253189	     -3.74016025	     -6.72012994	     -6.59092363	     53.86835806	     89.11589631	      7.40996722	     17.62931093	    -14.25645567	     -1.76043444	     -3.89731041	     28.47019498	     89.42194527	    -20.37289578	      1.96719000
      0.65000000	     -7.83046628	     -5.40363645	     -5.46426863	     -0.40594567	      0.92628442	      0.30910723	     -4.57079394	      8.98057211	      4.77007652	     10.53936908	      0.18394669	     14.35622766	      0.00000000	      0.00000000	     30.12412471	     -7.20739437	     -2.55095987	     11.11695623	      0.19402749	      1.20737532	      0.00000000	      0.00000000	     -4.08768992	      1.41843151	     11.65024360	     -3.94550169	     -6.45771685	     -6.65746268	     53.75134628	     89.11886194	      7.37836452	     17.45886787	    -14.14138261	     -1.89401913	     -3.84146785	     28.52095522	     89.41141495	    -20.31840058	      1.99970905
      0.66000000	     -7.67542166	     -5.19073583	     -5.39882931	     -0.39566047	      0.92568682	      0.30847874	     -5.12688704	      8.63324625	      4.70797364	     11.01601786	      0.19226578	     14.21348754	      0.00000000	      0.00000000	     30.12209915	     -6.91878481	     -2.53667971	     12.57734592	      0.21951610	      0.87776642	      0.00000000	      0.00000000	     -4.11518322	      1.14531057	     11.55907206	     -4.16929029	     -6.20534140	     -6.69692868	     53.45429571	     89.11470322	      7.34851689	     17.38763104	    -13.93866410	     -2.03300410	     -3.85512051	     28.52268833	     89.41413667	    -20.30401954	      2.02174480
      0.67000000	     -7.50151459	     -4.94102672	     -5.28718925	     -0.38520145	      0.92525414	      0.30775235	     -5.63645467	      8.24374334	      4.52220831	     11.62086880	      0.20282242	     13.97339768	      0.00000000	      0.00000000	     30.06365749	     -6.58642277	     -2.61489471	     14.04370578	      0.24510891	      0.57020099	      0.00000000	      0.00000000	     -4.15184451	      0.83756941	     11.38899188	     -4.42831067	     -5.94097822	     -6.73474169	     53.17895189	     89.11372981	      7.31764210	     17.29842886	    -13.72389210	     -2.17597696	     -3.86897615	     28.54211631	     89.41088844	    -20.30517192	      2.04209188
      0.68000000	     -7.26917750	     -4.59017225	     -5.07880649	     -0.37446168	      0.92503427	      0.30682367	     -6.10687043	      7.73115474	      3.97287903	     12.42685700	      0.21688957	     13.67569397	      0.00000000	      0.00000000	     29.87200539	     -6.11340926	     -2.80269552	     15.40952724	      0.26894699	      0.30337362	      0.00000000	      0.00000000	     -4.23640957	      0.43352708	     11.08276148	     -4.73809931	     -5.65851453	     -6.74556167	     52.91893406	     89.11996302	      7.25988783	     17.04484362	    -13.53719887	     -2.33970645	     -3.92015000	     28.64960750	     89.40909494	    -20.35920318	      2.08623526
      0.69000000	     -7.09431512	     -4.28593657	     -4.99334208	     -0.36381354	      0.92505300	      0.30600399	     -6.46451133	      7.26648232	      3.78921710	     13.30972225	      0.23229848	     13.08108066	      0.00000000	      0.00000000	     29.64761804	     -5.72682993	     -2.69880961	     16.63990040	      0.29042105	      0.07142184	      0.00000000	      0.00000000	     -4.24399427	      0.07988079	     10.96193540	     -5.04305580	     -5.41162621	     -6.72707309	     52.50789332	     89.11866788	      7.22250585	     16.97755786	    -13.24704101	     -2.47519837	     -3.99933985	     28.65740437	     89.41303633	    -20.40173472	      2.10352077
